<svg width="32" height="32" viewBox="0 0 32 32" fill="none" xmlns="http://www.w3.org/2000/svg">
<path fill-rule="evenodd" clip-rule="evenodd" d="M22.8973 21.0393C26.5044 16.7177 26.2793 10.2792 22.2219 6.22183C17.9261 1.92606 10.9613 1.92606 6.66555 6.22183C2.36978 10.5176 2.36978 17.4824 6.66555 21.7782C10.723 25.8356 17.1615 26.0607 21.4831 22.4536L28.5858 29.5563L30.0001 28.1421L22.8973 21.0393ZM20.8319 20.3396L20.7834 20.3882C17.2667 23.8787 11.5864 23.8706 8.07977 20.364C4.56505 16.8492 4.56505 11.1508 8.07977 7.63604C11.5945 4.12132 17.293 4.12132 20.8077 7.63604C24.3143 11.1427 24.3224 16.823 20.8319 20.3396Z" fill="black"/>
</svg>
