<svg width="32" height="32" viewBox="0 0 32 32" fill="none" xmlns="http://www.w3.org/2000/svg">
<path d="M22 12C22 13.1046 21.1045 14 20 14C18.8954 14 18 13.1046 18 12C18 10.8954 18.8954 10 20 10C21.1045 10 22 10.8954 22 12Z" fill="black"/>
<path fill-rule="evenodd" clip-rule="evenodd" d="M1.99997 19.1667V26H30V6H1.99997V19.1338L1.98547 19.1425L1.99997 19.1667ZM3.99997 8H28V11.4887L20.4836 16.9172C20.1593 17.1514 19.7266 17.1698 19.3836 16.964L14.0435 13.7599C13.0934 13.1899 11.9065 13.1899 10.9565 13.7599L3.99997 17.9338V8ZM3.99997 20.2662L11.9855 15.4749C12.3022 15.2849 12.6978 15.2849 13.0145 15.4749L18.3546 18.679C19.3837 19.2964 20.6817 19.2412 21.6546 18.5385L28 13.9558V24H3.99997V20.2662Z" fill="black"/>
</svg>
